<?xml version="1.0" encoding="utf-8"?>
<!-- Generator: Adobe Illustrator 20.1.0, SVG Export Plug-In . SVG Version: 6.00 Build 0)  -->
<svg version="1.1" id="Layer_1" xmlns="http://www.w3.org/2000/svg" xmlns:xlink="http://www.w3.org/1999/xlink" x="0px" y="0px"
	 viewBox="0 0 66.6 54.1" style="enable-background:new 0 0 66.6 54.1;" xml:space="preserve">
<style type="text/css">
	.st0{fill:#FFFFFF;}
	.st1{fill:#008472;}
</style>
<g id="XMLID_95_">
	<path id="XMLID_137_" class="st0" d="M66,27.5L66,27.5L36.8,17.2c0.6-0.8,1-1.7,1-2.8V14c0-1.5-0.7-2.9-2-3.7l-1.4-0.9v-2l3.8-1.9
		c0.4-0.2,0.6-0.6,0.6-1V1.1c0-0.6-0.5-1.1-1.1-1.1h-8.9c-0.6,0-1.1,0.5-1.1,1.1v3.3c0,0.4,0.2,0.8,0.6,1l3.8,1.9V10
		c0,0.4,0.2,0.7,0.5,0.9l1.8,1.2c0.6,0.4,1,1.1,1,1.9v0.4c0,0.7-0.3,1.3-0.8,1.7l-0.9-0.5c-0.3-0.2-0.7-0.2-1,0l-0.9,0.5
		c-0.5-0.4-0.8-1-0.8-1.7v-1.1h-2.2v1.1c0,1,0.4,2,1,2.8L0.6,27.5l0,0c-0.4,0.2-0.6,0.6-0.6,1v24.4c0,0.6,0.5,1.1,1.1,1.1h64.4
		c0.6,0,1.1-0.5,1.1-1.1V28.5C66.6,28.1,66.4,27.7,66,27.5z M30,2.2h6.7v1.5l-3.3,1.7L30,3.8V2.2z M33.3,18.9c0.5,0,0.9-0.1,1.4-0.2
		L61,27.4H5.7l26.2-8.8C32.4,18.8,32.8,18.9,33.3,18.9z M64.4,51.8H2.2V29.6h62.2V51.8z"/>
	<rect id="XMLID_118_" x="32.2" y="31.8" class="st0" width="2.2" height="17.8"/>
	<rect id="XMLID_115_" x="26.7" y="31.8" class="st0" width="2.2" height="17.8"/>
	<rect id="XMLID_114_" x="21.1" y="31.8" class="st0" width="2.2" height="17.8"/>
	<rect id="XMLID_111_" x="15.5" y="31.8" class="st0" width="2.2" height="17.8"/>
	<rect id="XMLID_110_" x="10" y="31.8" class="st1" width="2.2" height="17.8"/>
	<rect id="XMLID_107_" x="4.4" y="31.8" class="st1" width="2.2" height="17.8"/>
	<rect id="XMLID_106_" x="60" y="31.8" class="st0" width="2.2" height="17.8"/>
	<rect id="XMLID_103_" x="54.4" y="31.8" class="st0" width="2.2" height="17.8"/>
	<rect id="XMLID_102_" x="48.9" y="31.8" class="st0" width="2.2" height="17.8"/>
	<rect id="XMLID_99_" x="43.3" y="31.8" class="st0" width="2.2" height="17.8"/>
	<rect id="XMLID_98_" x="37.8" y="31.8" class="st0" width="2.2" height="17.8"/>
</g>
</svg>
