<?xml version="1.0" encoding="utf-8"?>
<!-- Generator: Adobe Illustrator 20.1.0, SVG Export Plug-In . SVG Version: 6.00 Build 0)  -->
<svg version="1.1" id="Layer_1" xmlns="http://www.w3.org/2000/svg" xmlns:xlink="http://www.w3.org/1999/xlink" x="0px" y="0px"
	 viewBox="0 0 17.3 17.3" style="enable-background:new 0 0 17.3 17.3;" xml:space="preserve">
<style type="text/css">
	.st0{fill:#FFFFFF;}
</style>
<g id="XMLID_309_">
	<path id="XMLID_392_" class="st0" d="M8.7,0C3.9,0,0,3.9,0,8.6c0,4.8,3.9,8.7,8.7,8.7c4.8,0,8.7-3.9,8.7-8.7C17.3,3.9,13.4,0,8.7,0
		z M10.9,7.9l-0.1,0.8H9.3c0,2.3,0,5.1,0,5.1h-2c0,0,0-2.8,0-5.1h-1V7.9V6.6h1V5.7c0-0.8,0.4-2.1,2.2-2.1l1.6,0v1.8c0,0-1,0-1.1,0
		c-0.2,0-0.5,0.1-0.5,0.5v0.8H11L10.9,7.9z"/>
</g>
</svg>
