<?xml version="1.0" encoding="UTF-8" standalone="no"?>
<!-- Generator: Adobe Illustrator 20.1.0, SVG Export Plug-In . SVG Version: 6.00 Build 0)  -->

<svg
   xmlns:dc="http://purl.org/dc/elements/1.1/"
   xmlns:cc="http://creativecommons.org/ns#"
   xmlns:rdf="http://www.w3.org/1999/02/22-rdf-syntax-ns#"
   xmlns:svg="http://www.w3.org/2000/svg"
   xmlns="http://www.w3.org/2000/svg"
   xmlns:sodipodi="http://sodipodi.sourceforge.net/DTD/sodipodi-0.dtd"
   xmlns:inkscape="http://www.inkscape.org/namespaces/inkscape"
   version="1.1"
   id="Layer_1"
   x="0px"
   y="0px"
   viewBox="0 0 17.4 17.299999"
   xml:space="preserve"
   sodipodi:docname="ig.svg"
   width="17.4"
   height="17.299999"
   inkscape:version="0.92.3 (2405546, 2018-03-11)"><metadata
   id="metadata87"><rdf:RDF><cc:Work
       rdf:about=""><dc:format>image/svg+xml</dc:format><dc:type
         rdf:resource="http://purl.org/dc/dcmitype/StillImage" /><dc:title></dc:title></cc:Work></rdf:RDF></metadata><defs
   id="defs85" /><sodipodi:namedview
   pagecolor="#ffffff"
   bordercolor="#666666"
   borderopacity="1"
   objecttolerance="10"
   gridtolerance="10"
   guidetolerance="10"
   inkscape:pageopacity="0"
   inkscape:pageshadow="2"
   inkscape:window-width="1366"
   inkscape:window-height="701"
   id="namedview83"
   showgrid="false"
   fit-margin-top="0"
   fit-margin-left="0"
   fit-margin-right="0"
   fit-margin-bottom="0"
   inkscape:zoom="26.562499"
   inkscape:cx="8.6499996"
   inkscape:cy="12.505745"
   inkscape:window-x="0"
   inkscape:window-y="0"
   inkscape:window-maximized="1"
   inkscape:current-layer="XMLID_309_" />
<style
   type="text/css"
   id="style74">
	.st0{fill:#FFFFFF;}
</style>
<g
   id="XMLID_309_"
   transform="translate(0,-1.9)">
	<path
   id="XMLID_435_"
   class="st0"
   d="M 12.6,0"
   inkscape:connector-curvature="0"
   style="fill:#ffffff" />
	<path
   id="XMLID_387_"
   class="st0"
   d="M 10.2,9.6 C 10.2,9.5 10.1,9.5 10.1,9.4 9.8,9 9.3,8.7 8.7,8.7 8,8.7 7.5,9 7.2,9.5 7.2,9.6 7.1,9.6 7.1,9.7 7,10 6.9,10.3 6.9,10.6 c 0,1 0.8,1.8 1.8,1.8 1,0 1.8,-0.8 1.8,-1.8 0,-0.4 -0.1,-0.7 -0.3,-1 z"
   inkscape:connector-curvature="0"
   style="fill:#ffffff" />
	<path
   id="XMLID_357_"
   class="st0"
   d="M 8.7,1.9 C 3.9,1.9 0,5.7 0,10.5 c 0,4.8 3.9,8.7 8.7,8.7 4.8,0 8.7,-3.9 8.7,-8.7 -0.1,-4.8 -4,-8.6 -8.7,-8.6 z m 5.1,7.6 v 0.8 3.4 c 0,1.1 -0.9,2 -2,2 H 5.5 c -1.1,0 -2,-0.9 -2,-2 V 10.3 9.5 7.4 c 0,-1.1 0.9,-2 2,-2 h 6.3 c 1.1,0 2,0.9 2,2 z"
   inkscape:connector-curvature="0"
   style="fill:#ffffff" />
	<path
   id="XMLID_315_"
   class="st0"
   d="m 11.2,9.5 c 0,0.1 0.1,0.2 0.1,0.3 0.1,0.2 0.1,0.5 0.1,0.8 0,1.5 -1.3,2.8 -2.8,2.8 -1.5,0 -2.8,-1.3 -2.8,-2.8 0,-0.3 0,-0.5 0.1,-0.8 C 6,9.7 6,9.6 6.1,9.5 H 4.5 v 0.5 3.7 c 0,0.5 0.4,1 1,1 h 6.3 c 0.5,0 1,-0.4 1,-1 V 10 9.5 Z"
   inkscape:connector-curvature="0"
   style="fill:#ffffff" />
	<polygon
   id="XMLID_310_"
   class="st0"
   points="10.9,8.3 12.6,8.3 12.6,6.8 12.6,6.6 12.4,6.6 10.9,6.6 "
   style="fill:#ffffff" />
</g>
</svg>