<?xml version="1.0" encoding="utf-8"?>
<!-- Generator: Adobe Illustrator 20.1.0, SVG Export Plug-In . SVG Version: 6.00 Build 0)  -->
<svg version="1.1" id="Layer_1" xmlns="http://www.w3.org/2000/svg" xmlns:xlink="http://www.w3.org/1999/xlink" x="0px" y="0px"
	 viewBox="0 0 147 50.6" style="enable-background:new 0 0 147 50.6;" xml:space="preserve">
<style type="text/css">
	.st0{fill:#FFFFFF;}
</style>
<g id="XMLID_281_">
	<rect id="XMLID_297_" class="st0" width="2.5" height="35.2"/>
	<polygon id="XMLID_295_" class="st0" points="21.6,0 18.6,0 3.5,15.8 3.5,17.2 19.3,35.2 22.2,35.2 5.9,16.5 	"/>
	<path id="XMLID_292_" class="st0" d="M57.8,21.4c0,4.2-0.9,7.3-2.7,9.1c-1.8,1.9-4.3,2.8-7.4,2.8s-5.6-0.9-7.4-2.8
		c-1.8-1.9-2.7-4.9-2.7-9.1V0h-2.5v21.4c0,2.5,0.3,4.6,0.9,6.4c0.6,1.8,1.5,3.3,2.6,4.4c1.1,1.2,2.4,2.1,4,2.6
		c1.5,0.6,3.3,0.8,5.1,0.8c1.9,0,3.6-0.3,5.1-0.8c1.5-0.6,2.9-1.4,4-2.6c1.1-1.2,2-2.7,2.6-4.4c0.6-1.8,0.9-3.9,0.9-6.4V0h-2.5V21.4
		z"/>
	<path id="XMLID_289_" class="st0" d="M87.4,0L74,35.2h2.5l3.8-10.4h16.5l3.8,10.4h2.5L89.7,0H87.4z M95.9,22.7H81.2l4.8-12.6
		l2.6-7.5h0.1l2.5,7.4L95.9,22.7z"/>
	<polygon id="XMLID_288_" class="st0" points="123.2,0 116.9,0 116.9,2.5 123.2,2.5 123.2,32.8 116.9,32.8 116.9,35.2 123.2,35.2 
		125.7,35.2 132.2,35.2 132.2,32.8 125.7,32.8 125.7,2.5 132.2,2.5 132.2,0 125.7,0 	"/>
	<polygon id="XMLID_287_" class="st0" points="142.9,41.8 138.8,41.8 142.9,46.2 138.8,50.6 142.3,50.6 147,46 	"/>
</g>
</svg>
